<svg version="1.1" id="Layer_1" xmlns="http://www.w3.org/2000/svg" xmlns:xlink="http://www.w3.org/1999/xlink" x="0px" y="0px"
	 width="100%" viewBox="0 0 1500 1500" enable-background="new 0 0 1500 1500" xml:space="preserve">
<path fill="#FFFFFF" opacity="1.000000" stroke="none" 
	d="
M875.000000,1501.000000 
	C583.333374,1501.000000 292.166779,1501.000000 1.000117,1501.000000 
	C1.000078,1001.000122 1.000078,501.000275 1.000039,1.000319 
	C500.999756,1.000212 1000.999512,1.000212 1500.999512,1.000106 
	C1500.999634,500.999664 1500.999634,1000.999329 1500.999756,1500.999512 
	C1292.500000,1501.000000 1084.000000,1501.000000 875.000000,1501.000000 
M1108.500000,548.966248 
	C1096.051025,548.966248 1083.601929,548.966248 1071.012329,548.966248 
	C1071.012329,683.830383 1071.012329,818.215576 1071.012329,953.268066 
	C1148.362305,953.268066 1225.512573,953.268066 1303.264648,953.268066 
	C1303.264648,818.912720 1303.264648,684.140503 1303.264648,548.966248 
	C1238.737671,548.966248 1174.118896,548.966248 1108.500000,548.966248 
M211.584579,681.499695 
	C211.584579,771.903381 211.584579,862.307068 211.584579,952.713928 
	C289.523193,952.713928 366.900970,952.713928 444.310669,952.713928 
	C444.310669,818.001465 444.310669,683.609009 444.310669,549.254517 
	C366.593689,549.254517 289.171417,549.254517 211.584534,549.254517 
	C211.584534,593.194946 211.584534,636.847290 211.584579,681.499695 
z"/>
<path fill="#101117" opacity="1.000000" stroke="none" 
	d="
M1109.000000,548.966248 
	C1174.118896,548.966248 1238.737671,548.966248 1303.264648,548.966248 
	C1303.264648,684.140503 1303.264648,818.912720 1303.264648,953.268066 
	C1225.512573,953.268066 1148.362305,953.268066 1071.012329,953.268066 
	C1071.012329,818.215576 1071.012329,683.830383 1071.012329,548.966248 
	C1083.601929,548.966248 1096.051025,548.966248 1109.000000,548.966248 
z"/>
<path fill="#101117" opacity="1.000000" stroke="none" 
	d="
M211.584564,680.999634 
	C211.584534,636.847290 211.584534,593.194946 211.584534,549.254517 
	C289.171417,549.254517 366.593689,549.254517 444.310669,549.254517 
	C444.310669,683.609009 444.310669,818.001465 444.310669,952.713928 
	C366.900970,952.713928 289.523193,952.713928 211.584579,952.713928 
	C211.584579,862.307068 211.584579,771.903381 211.584564,680.999634 
z"/>
</svg>