<svg version="1.1" id="Layer_1" xmlns="http://www.w3.org/2000/svg" xmlns:xlink="http://www.w3.org/1999/xlink" x="0px" y="0px"
	 width="100%" viewBox="0 0 1600 400" enable-background="new 0 0 1600 400" xml:space="preserve">
<path fill="#000000" opacity="1.000000" stroke="none" 
	d="
M463.000000,1.000000 
	C842.274902,1.000000 1221.549805,1.000000 1600.912354,1.000000 
	C1600.912354,134.254318 1600.912354,267.508728 1600.912354,401.000000 
	C1221.970703,401.000000 842.941284,401.000000 463.455933,400.534973 
	C463.000000,267.046661 463.000000,134.023331 463.000000,1.000000 
M715.000000,190.498322 
	C713.666870,181.354980 713.021118,172.045624 710.861389,163.101913 
	C705.950073,142.764389 694.647644,126.492653 677.022583,115.060272 
	C660.387085,104.269737 641.738953,100.169304 622.121582,100.019455 
	C608.791382,99.917625 595.459900,100.000000 582.128967,100.000000 
	C574.852356,100.000000 567.575806,100.000000 560.234863,100.000000 
	C560.234863,160.548355 560.234863,220.612473 560.234863,281.000000 
	C580.761414,281.000000 601.057434,281.186218 621.347107,280.908691 
	C629.510376,280.797028 637.748718,280.210876 645.796997,278.890289 
	C662.992737,276.068726 677.931946,268.074310 690.258362,255.992035 
	C699.675171,246.761749 706.655029,235.437332 709.828613,222.518906 
	C712.328491,212.343155 713.331848,201.799774 715.000000,190.498322 
M1103.500000,133.000000 
	C1114.596680,133.000000 1125.693481,133.000000 1136.710449,133.000000 
	C1136.710449,121.685081 1136.710449,110.946686 1136.710449,100.286942 
	C1098.019531,100.286942 1059.618652,100.286942 1021.280518,100.286942 
	C1021.280518,160.639008 1021.280518,220.703735 1021.280518,280.717194 
	C1032.968018,280.717194 1044.372681,280.717194 1056.168945,280.717194 
	C1056.168945,256.698364 1056.168945,232.960052 1056.168945,208.830872 
	C1080.635132,208.830872 1104.706665,208.830872 1128.714600,208.830872 
	C1128.714600,197.693390 1128.714600,186.955002 1128.714600,175.825867 
	C1104.359741,175.825867 1080.288208,175.825867 1056.287354,175.825867 
	C1056.287354,161.356186 1056.287354,147.285126 1056.287354,133.000000 
	C1071.882446,133.000000 1087.191284,133.000000 1103.500000,133.000000 
M839.547302,269.972351 
	C846.317627,265.077484 850.654480,258.257843 855.083252,251.053650 
	C845.310547,246.166901 835.996033,241.509262 826.705078,236.863419 
	C817.760864,251.392380 804.337585,258.007538 789.952148,254.940720 
	C774.663269,251.681305 765.308167,241.616913 763.745667,226.880402 
	C794.399414,226.880402 825.030640,226.880402 855.938904,226.880402 
	C856.308472,224.163681 856.942322,221.622894 856.948975,219.080444 
	C856.974731,209.274857 855.465088,199.707031 852.002808,190.483536 
	C846.456299,175.707321 836.848389,164.363495 822.291138,158.235870 
	C808.030579,152.233124 792.976685,151.018005 777.862793,155.042923 
	C758.768799,160.127792 744.820496,171.913559 736.305298,189.539871 
	C729.858093,202.885284 728.353394,217.217224 730.982178,231.920319 
	C735.252563,255.804779 748.443726,272.175812 771.167480,281.129486 
	C781.895508,285.356567 792.843079,285.679626 803.985535,284.965057 
	C817.266479,284.113281 829.131714,279.627258 839.547302,269.972351 
M1554.955200,217.677811 
	C1554.308472,213.357651 1553.796753,209.012207 1552.993408,204.721375 
	C1547.018188,172.807785 1522.583496,155.425095 1494.024658,153.108963 
	C1481.917480,152.127075 1470.174072,154.139511 1458.911865,159.444214 
	C1437.541504,169.509964 1425.962280,186.735214 1423.297241,209.428909 
	C1421.750488,222.599167 1422.512573,235.922775 1428.692993,248.735184 
	C1435.626953,263.109924 1445.934082,273.499695 1460.079102,279.842285 
	C1475.450317,286.734863 1491.758545,287.239929 1507.922852,282.908539 
	C1527.384277,277.693665 1540.953003,265.523712 1549.164307,246.930038 
	C1553.215088,237.757202 1553.554932,228.131088 1554.955200,217.677811 
M1271.542114,257.972687 
	C1278.639404,247.404053 1282.356201,235.620544 1282.902710,223.036880 
	C1283.540527,208.349777 1280.461792,194.408752 1272.378296,181.833984 
	C1264.047607,168.874893 1252.360474,160.439651 1237.705200,156.006134 
	C1225.262329,152.241959 1212.755737,152.011307 1200.062012,154.950623 
	C1183.194214,158.856476 1170.100220,168.005966 1160.916504,182.579529 
	C1151.387817,197.700684 1149.176147,214.221649 1151.960815,231.704727 
	C1155.952393,256.765259 1170.301147,273.267639 1193.703979,281.893402 
	C1205.903198,286.389771 1218.724731,286.373962 1231.454224,283.979797 
	C1248.061279,280.856384 1261.372437,272.493835 1271.542114,257.972687 
M902.528137,248.020416 
	C906.946167,258.489563 911.331604,268.972778 915.850281,279.398285 
	C916.175171,280.147705 917.468567,280.923248 918.318848,280.931366 
	C929.130554,281.034515 939.943604,280.999298 950.336975,280.999298 
	C968.147278,239.593613 985.787231,198.583847 1003.608887,157.151825 
	C990.320190,157.151825 977.851868,157.151825 965.097412,157.151825 
	C954.848328,183.082840 944.580688,209.060806 933.665222,236.677689 
	C922.915100,209.245041 912.696777,183.169586 902.557129,157.294785 
	C889.614868,157.294785 876.894287,157.294785 863.823242,157.294785 
	C876.668030,187.579224 889.352600,217.485733 902.528137,248.020416 
M1337.000000,210.500000 
	C1337.000000,173.740616 1337.000000,136.981247 1337.000000,100.287415 
	C1325.356934,100.287415 1314.284790,100.287415 1303.284424,100.287415 
	C1303.284424,160.642258 1303.284424,220.709274 1303.284424,280.712585 
	C1314.643066,280.712585 1325.715332,280.712585 1337.000000,280.712585 
	C1337.000000,257.450562 1337.000000,234.475281 1337.000000,210.500000 
M1400.000000,194.500000 
	C1400.000000,182.070328 1400.000000,169.640656 1400.000000,157.289398 
	C1388.352173,157.289398 1377.280273,157.289398 1366.286865,157.289398 
	C1366.286865,198.646866 1366.286865,239.714310 1366.286865,280.710632 
	C1377.647827,280.710632 1388.719727,280.710632 1400.000000,280.710632 
	C1400.000000,252.114532 1400.000000,223.807266 1400.000000,194.500000 
M1394.417725,137.088837 
	C1396.865356,134.944519 1399.812988,133.160126 1401.665283,130.587250 
	C1406.873535,123.352608 1405.812500,111.130867 1400.375122,104.780212 
	C1392.703247,95.819817 1381.079102,94.776062 1371.774780,100.042908 
	C1363.474243,104.741631 1359.833374,115.406769 1362.429443,125.026604 
	C1365.764282,137.383636 1381.599976,144.072067 1394.417725,137.088837 
z"/>
<path fill="#FFFFFF" opacity="1.000000" stroke="none" 
	d="
M462.534973,1.000000 
	C463.000000,134.023331 463.000000,267.046661 463.000000,400.534973 
	C329.643341,401.000000 196.286682,401.000000 62.465012,400.531342 
	C61.999996,267.041779 62.000000,134.020889 62.000000,1.000000 
	C195.356659,1.000000 328.713318,1.000000 462.534973,1.000000 
M348.017059,148.913361 
	C348.067719,183.945526 348.118408,218.977692 348.072662,254.541077 
	C348.376892,254.638321 348.681122,254.735565 349.913422,254.985901 
	C369.830292,254.985901 389.747162,254.985901 409.690674,254.985901 
	C409.690674,218.751511 409.690674,182.943359 409.690674,147.167175 
	C389.227295,147.167175 369.108795,147.167175 348.458740,147.072632 
	C348.362183,147.376801 348.265625,147.680969 348.017059,148.913361 
M181.010406,208.500000 
	C181.010406,188.075485 181.010406,167.650955 181.010406,147.290314 
	C160.026321,147.290314 139.625519,147.290314 119.288605,147.290314 
	C119.288605,183.311417 119.288605,219.041473 119.288605,254.709824 
	C139.981216,254.709824 160.382629,254.709824 181.010406,254.709824 
	C181.010406,239.447174 181.010406,224.473587 181.010406,208.500000 
z"/>
<path fill="#000000" opacity="1.000000" stroke="none" 
	d="
M61.531342,1.000000 
	C62.000000,134.020889 61.999996,267.041779 62.000000,400.531342 
	C41.683716,401.000000 21.367430,401.000000 1.053836,401.000000 
	C1.056526,267.666656 1.056526,134.333313 1.056526,1.000000 
	C21.096262,1.000000 41.079472,1.000000 61.531342,1.000000 
z"/>
<path fill="#FFFFFF" opacity="1.000000" stroke="none" 
	d="
M714.999939,190.959000 
	C713.331848,201.799774 712.328491,212.343155 709.828613,222.518906 
	C706.655029,235.437332 699.675171,246.761749 690.258362,255.992035 
	C677.931946,268.074310 662.992737,276.068726 645.796997,278.890289 
	C637.748718,280.210876 629.510376,280.797028 621.347107,280.908691 
	C601.057434,281.186218 580.761414,281.000000 560.234863,281.000000 
	C560.234863,220.612473 560.234863,160.548355 560.234863,100.000000 
	C567.575806,100.000000 574.852356,100.000000 582.128967,100.000000 
	C595.459900,100.000000 608.791382,99.917625 622.121582,100.019455 
	C641.738953,100.169304 660.387085,104.269737 677.022583,115.060272 
	C694.647644,126.492653 705.950073,142.764389 710.861389,163.101913 
	C713.021118,172.045624 713.666870,181.354980 714.999939,190.959000 
M595.000000,162.500000 
	C595.000000,190.923767 595.000000,219.347519 595.000000,248.000000 
	C604.033264,248.000000 612.548584,248.519485 620.969727,247.851715 
	C629.146545,247.203293 637.496765,246.212814 645.289551,243.810974 
	C658.886169,239.620285 668.697998,230.686234 674.389038,217.274963 
	C680.031128,203.979065 680.378113,190.379608 677.999329,176.465958 
	C675.174622,159.943649 666.564392,147.641373 651.433899,140.080307 
	C643.496521,136.113876 635.166504,134.080109 626.249634,133.914673 
	C615.909485,133.722855 605.578308,133.045746 595.000000,132.568314 
	C595.000000,142.882065 595.000000,152.191040 595.000000,162.500000 
z"/>
<path fill="#FFFFFF" opacity="1.000000" stroke="none" 
	d="
M1103.000000,133.000000 
	C1087.191284,133.000000 1071.882446,133.000000 1056.287354,133.000000 
	C1056.287354,147.285126 1056.287354,161.356186 1056.287354,175.825867 
	C1080.288208,175.825867 1104.359741,175.825867 1128.714600,175.825867 
	C1128.714600,186.955002 1128.714600,197.693390 1128.714600,208.830872 
	C1104.706665,208.830872 1080.635132,208.830872 1056.168945,208.830872 
	C1056.168945,232.960052 1056.168945,256.698364 1056.168945,280.717194 
	C1044.372681,280.717194 1032.968018,280.717194 1021.280518,280.717194 
	C1021.280518,220.703735 1021.280518,160.639008 1021.280518,100.286942 
	C1059.618652,100.286942 1098.019531,100.286942 1136.710449,100.286942 
	C1136.710449,110.946686 1136.710449,121.685081 1136.710449,133.000000 
	C1125.693481,133.000000 1114.596680,133.000000 1103.000000,133.000000 
z"/>
<path fill="#FFFFFF" opacity="1.000000" stroke="none" 
	d="
M839.283203,270.220612 
	C829.131714,279.627258 817.266479,284.113281 803.985535,284.965057 
	C792.843079,285.679626 781.895508,285.356567 771.167480,281.129486 
	C748.443726,272.175812 735.252563,255.804779 730.982178,231.920319 
	C728.353394,217.217224 729.858093,202.885284 736.305298,189.539871 
	C744.820496,171.913559 758.768799,160.127792 777.862793,155.042923 
	C792.976685,151.018005 808.030579,152.233124 822.291138,158.235870 
	C836.848389,164.363495 846.456299,175.707321 852.002808,190.483536 
	C855.465088,199.707031 856.974731,209.274857 856.948975,219.080444 
	C856.942322,221.622894 856.308472,224.163681 855.938904,226.880402 
	C825.030640,226.880402 794.399414,226.880402 763.745667,226.880402 
	C765.308167,241.616913 774.663269,251.681305 789.952148,254.940720 
	C804.337585,258.007538 817.760864,251.392380 826.705078,236.863419 
	C835.996033,241.509262 845.310547,246.166901 855.083252,251.053650 
	C850.654480,258.257843 846.317627,265.077484 839.283203,270.220612 
M783.702576,182.996567 
	C774.325928,186.545547 768.721375,193.564850 765.343811,202.831131 
	C784.856995,202.831131 804.210632,202.831131 823.589050,202.831131 
	C821.003540,185.665298 799.988098,176.506485 783.702576,182.996567 
z"/>
<path fill="#FFFFFF" opacity="1.000000" stroke="none" 
	d="
M1554.976074,218.133026 
	C1553.554932,228.131088 1553.215088,237.757202 1549.164307,246.930038 
	C1540.953003,265.523712 1527.384277,277.693665 1507.922852,282.908539 
	C1491.758545,287.239929 1475.450317,286.734863 1460.079102,279.842285 
	C1445.934082,273.499695 1435.626953,263.109924 1428.692993,248.735184 
	C1422.512573,235.922775 1421.750488,222.599167 1423.297241,209.428909 
	C1425.962280,186.735214 1437.541504,169.509964 1458.911865,159.444214 
	C1470.174072,154.139511 1481.917480,152.127075 1494.024658,153.108963 
	C1522.583496,155.425095 1547.018188,172.807785 1552.993408,204.721375 
	C1553.796753,209.012207 1554.308472,213.357651 1554.976074,218.133026 
M1491.226685,253.999908 
	C1513.916260,250.290802 1520.066406,235.330704 1520.675171,219.577545 
	C1521.101318,208.555084 1516.773804,198.395920 1507.528809,190.955200 
	C1498.233276,183.473679 1481.548218,182.942383 1472.356201,189.134079 
	C1461.247925,196.616653 1456.983643,207.057922 1456.819946,220.338089 
	C1456.597778,238.371353 1470.656982,255.109009 1491.226685,253.999908 
z"/>
<path fill="#FFFFFF" opacity="1.000000" stroke="none" 
	d="
M1271.274902,258.231201 
	C1261.372437,272.493835 1248.061279,280.856384 1231.454224,283.979797 
	C1218.724731,286.373962 1205.903198,286.389771 1193.703979,281.893402 
	C1170.301147,273.267639 1155.952393,256.765259 1151.960815,231.704727 
	C1149.176147,214.221649 1151.387817,197.700684 1160.916504,182.579529 
	C1170.100220,168.005966 1183.194214,158.856476 1200.062012,154.950623 
	C1212.755737,152.011307 1225.262329,152.241959 1237.705200,156.006134 
	C1252.360474,160.439651 1264.047607,168.874893 1272.378296,181.833984 
	C1280.461792,194.408752 1283.540527,208.349777 1282.902710,223.036880 
	C1282.356201,235.620544 1278.639404,247.404053 1271.274902,258.231201 
M1240.574463,195.058609 
	C1238.685181,193.504456 1236.837524,191.896378 1234.899780,190.405182 
	C1224.577271,182.461243 1206.878784,182.659622 1196.595581,192.015869 
	C1184.058838,203.422485 1182.135376,217.945770 1187.232422,233.077255 
	C1191.630005,246.132431 1202.090088,253.425919 1214.824585,253.897156 
	C1235.423950,254.659393 1247.917969,239.610214 1248.936279,220.522751 
	C1249.425049,211.357941 1246.304565,203.104477 1240.574463,195.058609 
z"/>
<path fill="#FFFFFF" opacity="1.000000" stroke="none" 
	d="
M902.282593,247.706329 
	C889.352600,217.485733 876.668030,187.579224 863.823242,157.294785 
	C876.894287,157.294785 889.614868,157.294785 902.557129,157.294785 
	C912.696777,183.169586 922.915100,209.245041 933.665222,236.677689 
	C944.580688,209.060806 954.848328,183.082840 965.097412,157.151825 
	C977.851868,157.151825 990.320190,157.151825 1003.608887,157.151825 
	C985.787231,198.583847 968.147278,239.593613 950.336975,280.999298 
	C939.943604,280.999298 929.130554,281.034515 918.318848,280.931366 
	C917.468567,280.923248 916.175171,280.147705 915.850281,279.398285 
	C911.331604,268.972778 906.946167,258.489563 902.282593,247.706329 
z"/>
<path fill="#FFFFFF" opacity="1.000000" stroke="none" 
	d="
M1337.000000,211.000000 
	C1337.000000,234.475281 1337.000000,257.450562 1337.000000,280.712585 
	C1325.715332,280.712585 1314.643066,280.712585 1303.284424,280.712585 
	C1303.284424,220.709274 1303.284424,160.642258 1303.284424,100.287415 
	C1314.284790,100.287415 1325.356934,100.287415 1337.000000,100.287415 
	C1337.000000,136.981247 1337.000000,173.740616 1337.000000,211.000000 
z"/>
<path fill="#FFFFFF" opacity="1.000000" stroke="none" 
	d="
M1400.000000,195.000000 
	C1400.000000,223.807266 1400.000000,252.114532 1400.000000,280.710632 
	C1388.719727,280.710632 1377.647827,280.710632 1366.286865,280.710632 
	C1366.286865,239.714310 1366.286865,198.646866 1366.286865,157.289398 
	C1377.280273,157.289398 1388.352173,157.289398 1400.000000,157.289398 
	C1400.000000,169.640656 1400.000000,182.070328 1400.000000,195.000000 
z"/>
<path fill="#FFFFFF" opacity="1.000000" stroke="none" 
	d="
M1394.148193,137.368973 
	C1381.599976,144.072067 1365.764282,137.383636 1362.429443,125.026604 
	C1359.833374,115.406769 1363.474243,104.741631 1371.774780,100.042908 
	C1381.079102,94.776062 1392.703247,95.819817 1400.375122,104.780212 
	C1405.812500,111.130867 1406.873535,123.352608 1401.665283,130.587250 
	C1399.812988,133.160126 1396.865356,134.944519 1394.148193,137.368973 
z"/>
<path fill="#101117" opacity="1.000000" stroke="none" 
	d="
M181.010406,209.000000 
	C181.010406,224.473587 181.010406,239.447174 181.010406,254.709824 
	C160.382629,254.709824 139.981216,254.709824 119.288605,254.709824 
	C119.288605,219.041473 119.288605,183.311417 119.288605,147.290314 
	C139.625519,147.290314 160.026321,147.290314 181.010406,147.290314 
	C181.010406,167.650955 181.010406,188.075485 181.010406,209.000000 
z"/>
<path fill="#101117" opacity="1.000000" stroke="none" 
	d="
M348.990295,147.167175 
	C369.108795,147.167175 389.227295,147.167175 409.690674,147.167175 
	C409.690674,182.943359 409.690674,218.751511 409.690674,254.985901 
	C389.747162,254.985901 369.830292,254.985901 349.357269,254.732819 
	C348.637360,254.259979 348.426697,254.103363 348.169098,254.009857 
	C348.118408,218.977692 348.067719,183.945526 348.269440,148.356812 
	C348.741150,147.635971 348.897308,147.424942 348.990295,147.167175 
z"/>
<path fill="#121319" opacity="1.000000" stroke="none" 
	d="
M348.120880,254.275467 
	C348.426697,254.103363 348.637360,254.259979 348.893250,254.656281 
	C348.681122,254.735565 348.376892,254.638321 348.120880,254.275467 
z"/>
<path fill="#121319" opacity="1.000000" stroke="none" 
	d="
M348.724518,147.119904 
	C348.897308,147.424942 348.741150,147.635971 348.345459,147.892700 
	C348.265625,147.680969 348.362183,147.376801 348.724518,147.119904 
z"/>
<path fill="#000000" opacity="1.000000" stroke="none" 
	d="
M595.000000,162.000000 
	C595.000000,152.191040 595.000000,142.882065 595.000000,132.568314 
	C605.578308,133.045746 615.909485,133.722855 626.249634,133.914673 
	C635.166504,134.080109 643.496521,136.113876 651.433899,140.080307 
	C666.564392,147.641373 675.174622,159.943649 677.999329,176.465958 
	C680.378113,190.379608 680.031128,203.979065 674.389038,217.274963 
	C668.697998,230.686234 658.886169,239.620285 645.289551,243.810974 
	C637.496765,246.212814 629.146545,247.203293 620.969727,247.851715 
	C612.548584,248.519485 604.033264,248.000000 595.000000,248.000000 
	C595.000000,219.347519 595.000000,190.923767 595.000000,162.000000 
z"/>
<path fill="#000000" opacity="1.000000" stroke="none" 
	d="
M784.114624,182.967041 
	C799.988098,176.506485 821.003540,185.665298 823.589050,202.831131 
	C804.210632,202.831131 784.856995,202.831131 765.343811,202.831131 
	C768.721375,193.564850 774.325928,186.545547 784.114624,182.967041 
z"/>
<path fill="#000000" opacity="1.000000" stroke="none" 
	d="
M1490.772339,253.999954 
	C1470.656982,255.109009 1456.597778,238.371353 1456.819946,220.338089 
	C1456.983643,207.057922 1461.247925,196.616653 1472.356201,189.134079 
	C1481.548218,182.942383 1498.233276,183.473679 1507.528809,190.955200 
	C1516.773804,198.395920 1521.101318,208.555084 1520.675171,219.577545 
	C1520.066406,235.330704 1513.916260,250.290802 1490.772339,253.999954 
z"/>
<path fill="#000000" opacity="1.000000" stroke="none" 
	d="
M1240.772949,195.370056 
	C1246.304565,203.104477 1249.425049,211.357941 1248.936279,220.522751 
	C1247.917969,239.610214 1235.423950,254.659393 1214.824585,253.897156 
	C1202.090088,253.425919 1191.630005,246.132431 1187.232422,233.077255 
	C1182.135376,217.945770 1184.058838,203.422485 1196.595581,192.015869 
	C1206.878784,182.659622 1224.577271,182.461243 1234.899780,190.405182 
	C1236.837524,191.896378 1238.685181,193.504456 1240.772949,195.370056 
z"/>
</svg>